<mxfile host="Electron" modified="2023-12-08T23:32:02.794Z" agent="Mozilla/5.0 (Windows NT 10.0; Win64; x64) AppleWebKit/537.36 (KHTML, like Gecko) draw.io/22.0.3 Chrome/114.0.5735.289 Electron/25.8.4 Safari/537.36" etag="8DfmmliPMsEBOm0LNAQS" version="22.0.3" type="device">
  <diagram name="Page-1" id="1A2gPPfQfYN7-np6HzHH">
    <mxGraphModel dx="839" dy="513" grid="1" gridSize="10" guides="1" tooltips="1" connect="1" arrows="1" fold="1" page="1" pageScale="1" pageWidth="850" pageHeight="1100" math="0" shadow="0">
      <root>
        <mxCell id="0" />
        <mxCell id="1" parent="0" />
        <mxCell id="VqZ4n8kQQ8ND7D1PAzpy-3" value="&lt;div style=&quot;text-align: left;&quot;&gt;&amp;nbsp; &amp;nbsp;&lt;/div&gt;&lt;div style=&quot;&quot;&gt;&lt;/div&gt;" style="rounded=0;whiteSpace=wrap;html=1;align=center;movable=1;resizable=1;rotatable=1;deletable=1;editable=1;locked=0;connectable=1;" parent="1" vertex="1">
          <mxGeometry x="1" width="850" height="80" as="geometry" />
        </mxCell>
        <mxCell id="VqZ4n8kQQ8ND7D1PAzpy-4" value="" style="ellipse;whiteSpace=wrap;html=1;" parent="1" vertex="1">
          <mxGeometry x="20" width="120" height="80" as="geometry" />
        </mxCell>
        <mxCell id="VqZ4n8kQQ8ND7D1PAzpy-6" value="&amp;nbsp; &amp;nbsp; &amp;nbsp; &amp;nbsp;Game Reviver @ Deon Johannes&amp;nbsp; &amp;nbsp; &amp;nbsp; &amp;nbsp; &amp;nbsp; &amp;nbsp; &amp;nbsp; &amp;nbsp; &amp;nbsp; &amp;nbsp; &amp;nbsp; &amp;nbsp; &amp;nbsp; &amp;nbsp; &amp;nbsp; &amp;nbsp; &amp;nbsp; &amp;nbsp; &amp;nbsp; &amp;nbsp; &amp;nbsp; &amp;nbsp; &amp;nbsp; &amp;nbsp; &amp;nbsp; &amp;nbsp; &amp;nbsp; &amp;nbsp; &amp;nbsp; &amp;nbsp; &amp;nbsp; Siteplan&amp;nbsp; &amp;nbsp; &amp;nbsp; &amp;nbsp; &amp;nbsp; &amp;nbsp; &amp;nbsp; &amp;nbsp; &amp;nbsp; &amp;nbsp; &amp;nbsp; &amp;nbsp; &amp;nbsp; &amp;nbsp; &amp;nbsp; &amp;nbsp; &amp;nbsp; &amp;nbsp; &amp;nbsp; &amp;nbsp; &amp;nbsp; &amp;nbsp; &amp;nbsp; &amp;nbsp; &amp;nbsp; &amp;nbsp; &amp;nbsp; &amp;nbsp; &amp;nbsp; &amp;nbsp; &amp;nbsp; &amp;nbsp; &amp;nbsp; &amp;nbsp; &amp;nbsp; &amp;nbsp; &amp;nbsp; &amp;nbsp; &amp;nbsp; &amp;nbsp; &amp;nbsp; &amp;nbsp; &amp;nbsp; &amp;nbsp; &amp;nbsp;&amp;nbsp;" style="rounded=0;whiteSpace=wrap;html=1;align=left;" parent="1" vertex="1">
          <mxGeometry x="15" y="1110" width="850" height="100" as="geometry" />
        </mxCell>
        <mxCell id="VqZ4n8kQQ8ND7D1PAzpy-9" value="" style="endArrow=none;html=1;rounded=0;entryX=1;entryY=0;entryDx=0;entryDy=0;" parent="1" target="VqZ4n8kQQ8ND7D1PAzpy-4" edge="1">
          <mxGeometry width="50" height="50" relative="1" as="geometry">
            <mxPoint x="40" y="70" as="sourcePoint" />
            <mxPoint x="105" y="15" as="targetPoint" />
          </mxGeometry>
        </mxCell>
        <mxCell id="VqZ4n8kQQ8ND7D1PAzpy-11" value="" style="endArrow=none;html=1;rounded=0;entryX=1;entryY=1;entryDx=0;entryDy=0;exitX=0;exitY=0;exitDx=0;exitDy=0;" parent="1" source="VqZ4n8kQQ8ND7D1PAzpy-4" target="VqZ4n8kQQ8ND7D1PAzpy-4" edge="1">
          <mxGeometry width="50" height="50" relative="1" as="geometry">
            <mxPoint x="50" y="70" as="sourcePoint" />
            <mxPoint x="110" y="10" as="targetPoint" />
          </mxGeometry>
        </mxCell>
        <mxCell id="VqZ4n8kQQ8ND7D1PAzpy-16" value="h1" style="rounded=1;whiteSpace=wrap;html=1;" parent="1" vertex="1">
          <mxGeometry y="100" width="850" height="60" as="geometry" />
        </mxCell>
        <mxCell id="VqZ4n8kQQ8ND7D1PAzpy-17" value="Text" style="text;html=1;align=center;verticalAlign=middle;resizable=0;points=[];autosize=1;strokeColor=none;fillColor=none;" parent="1" vertex="1">
          <mxGeometry x="360" y="208" width="40" height="30" as="geometry" />
        </mxCell>
        <mxCell id="VqZ4n8kQQ8ND7D1PAzpy-23" value="Paragraph" style="rounded=0;whiteSpace=wrap;html=1;" parent="1" vertex="1">
          <mxGeometry y="183" width="850" height="80" as="geometry" />
        </mxCell>
        <mxCell id="VqZ4n8kQQ8ND7D1PAzpy-25" value="" style="rounded=0;whiteSpace=wrap;html=1;" parent="1" vertex="1">
          <mxGeometry x="200" y="280" width="470" height="160" as="geometry" />
        </mxCell>
        <mxCell id="VqZ4n8kQQ8ND7D1PAzpy-28" value="Paragraph" style="rounded=0;whiteSpace=wrap;html=1;" parent="1" vertex="1">
          <mxGeometry x="20" y="460" width="819" height="50" as="geometry" />
        </mxCell>
        <mxCell id="VqZ4n8kQQ8ND7D1PAzpy-32" value="" style="endArrow=none;html=1;rounded=0;exitX=0;exitY=1;exitDx=0;exitDy=0;entryX=1;entryY=0;entryDx=0;entryDy=0;" parent="1" source="VqZ4n8kQQ8ND7D1PAzpy-25" target="VqZ4n8kQQ8ND7D1PAzpy-25" edge="1">
          <mxGeometry width="50" height="50" relative="1" as="geometry">
            <mxPoint x="350" y="370" as="sourcePoint" />
            <mxPoint x="400" y="320" as="targetPoint" />
          </mxGeometry>
        </mxCell>
        <mxCell id="VqZ4n8kQQ8ND7D1PAzpy-33" value="" style="endArrow=none;html=1;rounded=0;entryX=1;entryY=1;entryDx=0;entryDy=0;exitX=0;exitY=0;exitDx=0;exitDy=0;" parent="1" source="VqZ4n8kQQ8ND7D1PAzpy-25" target="VqZ4n8kQQ8ND7D1PAzpy-25" edge="1">
          <mxGeometry width="50" height="50" relative="1" as="geometry">
            <mxPoint x="300" y="440" as="sourcePoint" />
            <mxPoint x="350" y="390" as="targetPoint" />
          </mxGeometry>
        </mxCell>
        <mxCell id="yUll7H5ExB23uH4SAmas-3" value="" style="rounded=0;whiteSpace=wrap;html=1;" parent="1" vertex="1">
          <mxGeometry x="200" y="530" width="470" height="180" as="geometry" />
        </mxCell>
        <mxCell id="yUll7H5ExB23uH4SAmas-6" value="" style="endArrow=none;html=1;rounded=0;entryX=1;entryY=0;entryDx=0;entryDy=0;exitX=0;exitY=1;exitDx=0;exitDy=0;" parent="1" source="yUll7H5ExB23uH4SAmas-3" target="yUll7H5ExB23uH4SAmas-3" edge="1">
          <mxGeometry width="50" height="50" relative="1" as="geometry">
            <mxPoint x="410" y="660" as="sourcePoint" />
            <mxPoint x="460" y="610" as="targetPoint" />
          </mxGeometry>
        </mxCell>
        <mxCell id="yUll7H5ExB23uH4SAmas-7" value="" style="endArrow=none;html=1;rounded=0;entryX=0.975;entryY=0.994;entryDx=0;entryDy=0;entryPerimeter=0;exitX=0.011;exitY=0.041;exitDx=0;exitDy=0;exitPerimeter=0;" parent="1" source="yUll7H5ExB23uH4SAmas-3" target="yUll7H5ExB23uH4SAmas-3" edge="1">
          <mxGeometry width="50" height="50" relative="1" as="geometry">
            <mxPoint x="360" y="558" as="sourcePoint" />
            <mxPoint x="412.2222222222222" y="626" as="targetPoint" />
          </mxGeometry>
        </mxCell>
        <mxCell id="LgFmigv9e_Kz_EdHM4O4-11" value="" style="rounded=0;whiteSpace=wrap;html=1;" parent="1" vertex="1">
          <mxGeometry x="700" y="1135" width="50" height="50" as="geometry" />
        </mxCell>
        <mxCell id="LgFmigv9e_Kz_EdHM4O4-12" value="" style="rounded=0;whiteSpace=wrap;html=1;" parent="1" vertex="1">
          <mxGeometry x="785.5" y="1135" width="50" height="50" as="geometry" />
        </mxCell>
        <mxCell id="LgFmigv9e_Kz_EdHM4O4-14" value="" style="endArrow=none;html=1;rounded=0;" parent="1" edge="1">
          <mxGeometry width="50" height="50" relative="1" as="geometry">
            <mxPoint x="700" y="1185" as="sourcePoint" />
            <mxPoint x="750" y="1135" as="targetPoint" />
          </mxGeometry>
        </mxCell>
        <mxCell id="LgFmigv9e_Kz_EdHM4O4-15" value="" style="endArrow=none;html=1;rounded=0;entryX=1;entryY=1;entryDx=0;entryDy=0;exitX=0;exitY=0;exitDx=0;exitDy=0;" parent="1" source="LgFmigv9e_Kz_EdHM4O4-11" target="LgFmigv9e_Kz_EdHM4O4-11" edge="1">
          <mxGeometry width="50" height="50" relative="1" as="geometry">
            <mxPoint x="650" y="1060" as="sourcePoint" />
            <mxPoint x="700" y="1010" as="targetPoint" />
          </mxGeometry>
        </mxCell>
        <mxCell id="LgFmigv9e_Kz_EdHM4O4-17" value="" style="endArrow=none;html=1;rounded=0;" parent="1" edge="1">
          <mxGeometry width="50" height="50" relative="1" as="geometry">
            <mxPoint x="785.5" y="1185" as="sourcePoint" />
            <mxPoint x="835.5" y="1135" as="targetPoint" />
          </mxGeometry>
        </mxCell>
        <mxCell id="LgFmigv9e_Kz_EdHM4O4-19" value="" style="endArrow=none;html=1;rounded=0;entryX=1;entryY=1;entryDx=0;entryDy=0;exitX=0;exitY=0;exitDx=0;exitDy=0;" parent="1" target="LgFmigv9e_Kz_EdHM4O4-12" edge="1" source="LgFmigv9e_Kz_EdHM4O4-12">
          <mxGeometry width="50" height="50" relative="1" as="geometry">
            <mxPoint x="750" y="1025" as="sourcePoint" />
            <mxPoint x="800" y="975" as="targetPoint" />
          </mxGeometry>
        </mxCell>
        <mxCell id="LgFmigv9e_Kz_EdHM4O4-20" value="Paragraph" style="rounded=0;whiteSpace=wrap;html=1;" parent="1" vertex="1">
          <mxGeometry x="25" y="1020" width="820" height="50" as="geometry" />
        </mxCell>
        <object label="Home" id="mNJbSlym71ZeMXSpc_pc-1">
          <mxCell style="text;strokeColor=none;align=center;fillColor=none;html=1;verticalAlign=middle;whiteSpace=wrap;rounded=0;" parent="1" vertex="1">
            <mxGeometry x="190" y="10" width="60" height="35" as="geometry" />
          </mxCell>
        </object>
        <mxCell id="mNJbSlym71ZeMXSpc_pc-2" value="Old&lt;br&gt;School&lt;br&gt;Retro&lt;br&gt;" style="text;strokeColor=none;align=center;fillColor=none;html=1;verticalAlign=middle;whiteSpace=wrap;rounded=0;" parent="1" vertex="1">
          <mxGeometry x="360" y="25" width="60" height="30" as="geometry" />
        </mxCell>
        <mxCell id="mNJbSlym71ZeMXSpc_pc-3" value="New and&lt;br&gt;Upcoming" style="text;strokeColor=none;align=center;fillColor=none;html=1;verticalAlign=middle;whiteSpace=wrap;rounded=0;" parent="1" vertex="1">
          <mxGeometry x="520" y="20" width="60" height="30" as="geometry" />
        </mxCell>
        <mxCell id="mNJbSlym71ZeMXSpc_pc-6" value="" style="ellipse;whiteSpace=wrap;html=1;aspect=fixed;" parent="1" vertex="1">
          <mxGeometry x="700" y="15" width="50" height="50" as="geometry" />
        </mxCell>
        <mxCell id="mNJbSlym71ZeMXSpc_pc-7" value="" style="ellipse;whiteSpace=wrap;html=1;aspect=fixed;" parent="1" vertex="1">
          <mxGeometry x="770" y="15" width="50" height="50" as="geometry" />
        </mxCell>
        <mxCell id="mNJbSlym71ZeMXSpc_pc-12" value="" style="html=1;shadow=0;dashed=0;align=center;verticalAlign=middle;shape=mxgraph.arrows2.arrow;dy=0.6;dx=40;notch=0;" parent="1" vertex="1">
          <mxGeometry x="790" y="25" width="10" height="30" as="geometry" />
        </mxCell>
        <mxCell id="mNJbSlym71ZeMXSpc_pc-15" value="" style="html=1;shadow=0;dashed=0;align=center;verticalAlign=middle;shape=mxgraph.arrows2.arrow;dy=0.6;dx=40;flipH=1;notch=0;" parent="1" vertex="1">
          <mxGeometry x="720" y="20" width="10" height="30" as="geometry" />
        </mxCell>
        <mxCell id="mOYl0JNlVjfyNP1BbUCt-1" value="Paragraph" style="rounded=0;whiteSpace=wrap;html=1;" vertex="1" parent="1">
          <mxGeometry x="16.5" y="730" width="819" height="50" as="geometry" />
        </mxCell>
        <mxCell id="mOYl0JNlVjfyNP1BbUCt-2" value="" style="rounded=0;whiteSpace=wrap;html=1;" vertex="1" parent="1">
          <mxGeometry x="205" y="800" width="470" height="170" as="geometry" />
        </mxCell>
        <mxCell id="mOYl0JNlVjfyNP1BbUCt-6" value="" style="endArrow=none;html=1;rounded=0;exitX=0;exitY=1;exitDx=0;exitDy=0;" edge="1" parent="1" source="mOYl0JNlVjfyNP1BbUCt-2">
          <mxGeometry width="50" height="50" relative="1" as="geometry">
            <mxPoint x="625" y="850" as="sourcePoint" />
            <mxPoint x="675" y="800" as="targetPoint" />
          </mxGeometry>
        </mxCell>
        <mxCell id="mOYl0JNlVjfyNP1BbUCt-7" value="" style="endArrow=none;html=1;rounded=0;entryX=0;entryY=0;entryDx=0;entryDy=0;exitX=1;exitY=1;exitDx=0;exitDy=0;" edge="1" parent="1" source="mOYl0JNlVjfyNP1BbUCt-2" target="mOYl0JNlVjfyNP1BbUCt-2">
          <mxGeometry width="50" height="50" relative="1" as="geometry">
            <mxPoint x="220" y="870" as="sourcePoint" />
            <mxPoint x="270" y="820" as="targetPoint" />
          </mxGeometry>
        </mxCell>
      </root>
    </mxGraphModel>
  </diagram>
</mxfile>
